<?xml version="1.0" encoding="UTF-8" standalone="no"?>
<!-- Created with Inkscape (http://www.inkscape.org/) -->

<svg
   xmlns:dc="http://purl.org/dc/elements/1.1/"
   xmlns:cc="http://creativecommons.org/ns#"
   xmlns:rdf="http://www.w3.org/1999/02/22-rdf-syntax-ns#"
   xmlns:svg="http://www.w3.org/2000/svg"
   xmlns="http://www.w3.org/2000/svg"
   xmlns:sodipodi="http://sodipodi.sourceforge.net/DTD/sodipodi-0.dtd"
   xmlns:inkscape="http://www.inkscape.org/namespaces/inkscape"
   id="svg1221"
   version="1.1"
   viewBox="0 0 210 297"
   height="297mm"
   width="210mm"
   inkscape:export-filename="/home/bine/developer/AndroidStudioProjects/Einkaufsliste/app/src/main/res/drawable/configure.png"
   inkscape:export-xdpi="16.98704"
   inkscape:export-ydpi="16.98704"
   inkscape:version="0.92.3 (2405546, 2018-03-11)"
   sodipodi:docname="configure.svg">
  <sodipodi:namedview
     inkscape:window-maximized="0"
     inkscape:window-y="493"
     inkscape:window-x="2014"
     inkscape:window-height="423"
     inkscape:window-width="952"
     showgrid="false"
     inkscape:current-layer="layer1"
     inkscape:document-units="mm"
     inkscape:cy="1227.6603"
     inkscape:cx="-540.13426"
     inkscape:zoom="2.8284271"
     inkscape:pageshadow="2"
     inkscape:pageopacity="0.0"
     borderopacity="1.0"
     bordercolor="#666666"
     pagecolor="#ffffff"
     id="base" />
  <defs
     id="defs1215" />
  <metadata
     id="metadata1218">
    <rdf:RDF>
      <cc:Work
         rdf:about="">
        <dc:format>image/svg+xml</dc:format>
        <dc:type
           rdf:resource="http://purl.org/dc/dcmitype/StillImage" />
        <dc:title></dc:title>
      </cc:Work>
    </rdf:RDF>
  </metadata>
  <g
     id="layer1"
     inkscape:groupmode="layer"
     inkscape:label="Ebene 1">
    <path
       d="m 81.024406,-134.559 1.60587,0.5908 1.58797,0.97152 v 0.48938 l -1.58797,0.97152 -1.60587,0.5908 -0.10987,0.83453 1.39824,0.98629 1.28241,1.34942 -0.12666,0.47271 -1.78531,0.52742 -1.70406,0.15503 -0.32212,0.77766 1.09533,1.31458 0.88946,1.63535 -0.24469,0.42382 -1.86098,0.0474 -1.68612,-0.2913 -0.51242,0.6678 0.71777,1.55327 0.43589,1.80983 -0.34605,0.34605 -1.80983,-0.43589 -1.55327,-0.71777 -0.6678,0.51242 0.2913,1.68612 -0.0474,1.86098 -0.42382,0.24469 -1.63535,-0.88946 -1.31458,-1.09533 -0.77766,0.32212 -0.15503,1.70406 -0.52742,1.78531 -0.47271,0.12666 -1.34942,-1.28241 -0.98629,-1.39824 -0.83453,0.10987 -0.5908,1.60587 -0.97152,1.58797 h -0.48938 l -0.97152,-1.58797 -0.5908,-1.60587 -0.83453,-0.10987 -0.98629,1.39824 -1.34942,1.28241 -0.47271,-0.12666 -0.52742,-1.78531 -0.15503,-1.70406 -0.77766,-0.32212 -1.31458,1.09533 -1.63535,0.88946 -0.42382,-0.24469 -0.0474,-1.86098 0.2913,-1.68612 -0.6678,-0.51242 -1.55327,0.71777 -1.80983,0.43589 -0.34605,-0.34605 0.43589,-1.80983 0.71777,-1.55327 -0.51242,-0.6678 -1.68612,0.2913 -1.86098,-0.0474 -0.24469,-0.42382 0.88946,-1.63535 1.09533,-1.31458 -0.32212,-0.77766 -1.70406,-0.15503 -1.78531,-0.52742 -0.12666,-0.47271 1.28241,-1.34942 1.39824,-0.98629 -0.10987,-0.83453 -1.60587,-0.5908 -1.58797,-0.97152 v -0.48938 l 1.58797,-0.97152 1.60587,-0.5908 0.10987,-0.83453 -1.39824,-0.98629 -1.28241,-1.34942 0.12666,-0.47271 1.78531,-0.52742 1.70406,-0.15503 0.32212,-0.77766 -1.09533,-1.31458 -0.88946,-1.63535 0.24469,-0.42382 1.86098,-0.0474 1.68612,0.2913 0.51242,-0.6678 -0.71777,-1.55327 -0.43589,-1.80983 0.34605,-0.34605 1.80983,0.43589 1.55327,0.71777 0.6678,-0.51242 -0.2913,-1.68612 0.0474,-1.86098 0.42382,-0.24469 1.63535,0.88946 1.31458,1.09533 0.77766,-0.32212 0.15503,-1.70406 0.52742,-1.78531 0.47271,-0.12666 1.34942,1.28241 0.98629,1.39824 0.83453,-0.10987 0.5908,-1.60587 0.97152,-1.58797 h 0.48938 l 0.97152,1.58797 0.5908,1.60587 0.83453,0.10987 0.98629,-1.39824 1.34942,-1.28241 0.47271,0.12666 0.52742,1.78531 0.15503,1.70406 0.77766,0.32212 1.31458,-1.09533 1.63535,-0.88946 0.42382,0.24469 0.0474,1.86098 -0.2913,1.68612 0.6678,0.51242 1.55327,-0.71777 1.80983,-0.43589 0.34605,0.34605 -0.43589,1.80983 -0.71777,1.55327 0.51242,0.6678 1.68612,-0.2913 1.86098,0.0474 0.24469,0.42382 -0.88946,1.63535 -1.09533,1.31458 0.32212,0.77766 1.70406,0.15503 1.78531,0.52742 0.12666,0.47271 -1.28241,1.34942 -1.39824,0.98629 z"
       style="fill:#4d4d4d;fill-opacity:1;stroke:none;stroke-width:0.26458332;stroke-opacity:1"
       id="path2682"
       inkscape:connector-curvature="0" />
    <circle
       style="fill:#4d4d4d;fill-opacity:1;stroke:none;stroke-width:0.26458332;stroke-opacity:1"
       id="path2684"
       cx="64.074409"
       cy="-132.75198"
       r="10.583333" />
    <ellipse
       style="fill:#ffffff;fill-opacity:1;stroke:#000000;stroke-width:0.1;stroke-miterlimit:3.70000005;stroke-dasharray:none;stroke-dashoffset:0;stroke-opacity:1"
       id="path2781"
       cx="64.074409"
       cy="-132.75198"
       rx="11.759859"
       ry="11.091685" />
    <path
       style="fill:#e0e0df;fill-opacity:1;stroke:none;stroke-width:0.37795275;stroke-miterlimit:3.70000005;stroke-dasharray:none;stroke-dashoffset:0;stroke-opacity:1"
       d="M -534.45898 -241.07422 A 58.204338 56.5972 0 0 0 -545.67969 -239.51562 L -545.84766 -233.16406 A 51.193855 50.479567 0 0 0 -549.77734 -231.875 L -553.78711 -237.02344 A 58.204338 56.5972 0 0 0 -563.79883 -231.96875 L -561.68164 -225.64062 A 51.193855 50.479567 0 0 0 -565.0625 -223.0625 L -570.82031 -226.67188 A 58.204338 56.5972 0 0 0 -578.41406 -218.64453 L -574.13477 -213.26562 A 51.193855 50.479567 0 0 0 -576.50391 -209.50391 L -583.46484 -210.99414 A 58.204338 56.5972 0 0 0 -587.71875 -200.99805 L -581.5332 -197.20898 A 51.193855 50.479567 0 0 0 -582.49219 -192.77148 L -589.71094 -191.76758 A 58.204338 56.5972 0 0 0 -590.24219 -184.56055 A 58.204338 56.5972 0 0 0 -590.11328 -180.99219 L -582.92383 -179.5293 A 51.193855 50.479567 0 0 0 -582.26758 -175.01562 L -588.63477 -171.64258 A 58.204338 56.5972 0 0 0 -585.0625 -161.39258 L -578.01758 -162.44531 A 51.193855 50.479567 0 0 0 -575.84961 -158.54688 L -580.54883 -153.3457 A 58.204338 56.5972 0 0 0 -573.51953 -144.88281 L -567.44531 -148.17969 A 51.193855 50.479567 0 0 0 -564.2207 -145.35352 L -566.7207 -139.19141 A 58.204338 56.5972 0 0 0 -557.05273 -133.5332 L -552.72656 -138.42383 A 51.193855 50.479567 0 0 0 -548.86328 -136.94531 L -549.09961 -130.45508 A 58.204338 56.5972 0 0 0 -538.00977 -128.26953 L -535.65039 -134.25977 A 51.193855 50.479567 0 0 0 -532.03906 -134.08203 A 51.193855 50.479567 0 0 0 -531.57422 -134.09766 L -529.61719 -128.04688 A 58.204338 56.5972 0 0 0 -518.39648 -129.60547 L -518.23047 -135.95703 A 51.193855 50.479567 0 0 0 -514.30078 -137.24609 L -510.28906 -132.0957 A 58.204338 56.5972 0 0 0 -500.2793 -137.15234 L -502.39648 -143.48242 A 51.193855 50.479567 0 0 0 -499.01562 -146.05859 L -493.25586 -142.44727 A 58.204338 56.5972 0 0 0 -485.66406 -150.47656 L -489.94336 -155.85742 A 51.193855 50.479567 0 0 0 -487.57227 -159.61719 L -480.61133 -158.12695 A 58.204338 56.5972 0 0 0 -476.35938 -168.12109 L -482.54297 -171.91016 A 51.193855 50.479567 0 0 0 -481.58789 -176.34766 L -474.36719 -177.35156 A 58.204338 56.5972 0 0 0 -473.83398 -184.56055 A 58.204338 56.5972 0 0 0 -473.96484 -188.12891 L -481.15234 -189.5918 A 51.193855 50.479567 0 0 0 -481.81055 -194.10547 L -475.44336 -197.47852 A 58.204338 56.5972 0 0 0 -479.01367 -207.72852 L -486.05859 -206.67578 A 51.193855 50.479567 0 0 0 -488.22656 -210.57227 L -483.52734 -215.77539 A 58.204338 56.5972 0 0 0 -490.55664 -224.23828 L -496.63086 -220.93945 A 51.193855 50.479567 0 0 0 -499.85547 -223.76758 L -497.35547 -229.92773 A 58.204338 56.5972 0 0 0 -507.02344 -235.58594 L -511.34961 -230.69531 A 51.193855 50.479567 0 0 0 -515.21484 -232.17578 L -514.97852 -238.66406 A 58.204338 56.5972 0 0 0 -526.06836 -240.85156 L -528.42773 -234.86133 A 51.193855 50.479567 0 0 0 -532.03906 -235.04102 A 51.193855 50.479567 0 0 0 -532.50391 -235.02539 L -534.45898 -241.07422 z M -532.03711 -208.55469 A 24.169224 23.994242 0 0 1 -507.86914 -184.56055 A 24.169224 23.994242 0 0 1 -532.03711 -160.56641 A 24.169224 23.994242 0 0 1 -556.20703 -184.56055 A 24.169224 23.994242 0 0 1 -532.03711 -208.55469 z "
       transform="scale(0.26458333)"
       id="path2797"
       inkscape:export-xdpi="12.370262"
       inkscape:export-ydpi="12.370262" />
  </g>
</svg>
